# xmcd CD database file
#
# Track frame offsets:
#	150
#	42176
#	69972
#	88418
#	121832
#	154629
#	191512
#	234627
#	264133
#
# Disc length: 3848 seconds
#
# Revision: 1
# Processed by: cddbd v1.5.2PL0 Copyright (c) Steve Scherf et al.
# Submitted via: CDex 1.51
#
DISCID=6c0f0609
DTITLE=Tonu Naissoo Trio - Estonian Wind
DYEAR=2007
DGENRE=Jazz
TTITLE0=I Say A Little Prayer
TTITLE1=Up Jumped Spring
TTITLE2=Serenata
TTITLE3=Blackberry Winter
TTITLE4=My Heart Belongs To Daddy
TTITLE5=A Time There Was
TTITLE6=The More I See You
TTITLE7=Be My Love
TTITLE8=Upper East Side
EXTD=YEAR: 2007
EXTT0=
EXTT1=
EXTT2=
EXTT3=
EXTT4=
EXTT5=
EXTT6=
EXTT7=
EXTT8=
PLAYORDER=
